HIERARCHY
ROOT Hips
{
	OFFSET	0.00	0.00	0.00
	CHANNELS 6 Xposition Yposition Zposition Zrotation Xrotation Yrotation
	JOINT LeftUpLeg
	{
		OFFSET	 0.126116	-0.065224	 0.014019
		CHANNELS 3 Zrotation Xrotation Yrotation
		JOINT LeftLeg
		{
			OFFSET	 0.000000	 0.569914	 0.000000
			CHANNELS 3 Zrotation Xrotation Yrotation
			JOINT LeftFoot
			{
				OFFSET	 0.000000	 0.544423	 0.000000
				CHANNELS 3 Zrotation Xrotation Yrotation
				JOINT LeftToeBase
				{
					OFFSET	 0.000000	 0.207117	 0.000000
					CHANNELS 3 Zrotation Xrotation Yrotation
					End Site
					{
						OFFSET	 0.000000	 0.207117	 0.000000
					}
				}
			}
		}
	}
	JOINT RightUpLeg
	{
		OFFSET	-0.124023	-0.065224	 0.008373
		CHANNELS 3 Zrotation Xrotation Yrotation
		JOINT RightLeg
		{
			OFFSET	 0.000000	 0.570047	 0.000000
			CHANNELS 3 Zrotation Xrotation Yrotation
			JOINT RightFoot
			{
				OFFSET	 0.000000	 0.544354	 0.000000
				CHANNELS 3 Zrotation Xrotation Yrotation
				JOINT RightToeBase
				{
					OFFSET	 0.000000	 0.207540	 0.000000
					CHANNELS 3 Zrotation Xrotation Yrotation
					End Site
					{
						OFFSET	 0.000000	 0.207540	 0.000000
					}
				}
			}
		}
	}
	JOINT Spine
	{
		OFFSET	 0.000184	 0.117403	 0.007763
		CHANNELS 3 Zrotation Xrotation Yrotation
		JOINT Spine1
		{
			OFFSET	 0.000000	 0.137269	 0.000000
			CHANNELS 3 Zrotation Xrotation Yrotation
			JOINT Spine2
			{
				OFFSET	 0.000000	 0.156879	 0.000000
				CHANNELS 3 Zrotation Xrotation Yrotation
				JOINT LeftShoulder
				{
					OFFSET	 0.080501	 0.160143	 0.002496
					CHANNELS 3 Zrotation Xrotation Yrotation
					JOINT LeftArm
					{
						OFFSET	 0.000000	 0.164363	 0.000000
						CHANNELS 3 Zrotation Xrotation Yrotation
						JOINT LeftForeArm
						{
							OFFSET	 0.000000	 0.364576	 0.000000
							CHANNELS 3 Zrotation Xrotation Yrotation
							JOINT LeftHand
							{
								OFFSET	 0.000000	 0.360812	 0.000000
								CHANNELS 3 Zrotation Xrotation Yrotation
								JOINT LeftHandIndex1
								{
									OFFSET	 0.000000	 0.086006	 0.000000
									CHANNELS 3 Zrotation Xrotation Yrotation
									JOINT LeftHandIndex2
									{
										OFFSET	 0.000000	 0.047237	 0.000000
										CHANNELS 3 Zrotation Xrotation Yrotation
										JOINT LeftHandIndex3
										{
											OFFSET	-0.004284	 0.038165	 0.000551
											CHANNELS 3 Zrotation Xrotation Yrotation
											End Site
											{
												OFFSET	-0.004284	 0.038165	 0.000551
											}
										}
									}
								}
							}
						}
					}
				}
				JOINT Neck
				{
					OFFSET	 0.000000	 0.176489	 0.000000
					CHANNELS 3 Zrotation Xrotation Yrotation
					JOINT Head
					{
						OFFSET	 0.000000	 0.077941	 0.001747
						CHANNELS 3 Zrotation Xrotation Yrotation
						End Site
						{
							OFFSET	 0.000000	 0.077941	 0.001747
						}
					}
				}
				JOINT RightShoulder
				{
					OFFSET	-0.080363	 0.159706	-0.000306
					CHANNELS 3 Zrotation Xrotation Yrotation
					JOINT RightArm
					{
						OFFSET	 0.000000	 0.164196	 0.000000
						CHANNELS 3 Zrotation Xrotation Yrotation
						JOINT RightForeArm
						{
							OFFSET	 0.000000	 0.365611	 0.000000
							CHANNELS 3 Zrotation Xrotation Yrotation
							JOINT RightHand
							{
								OFFSET	 0.000000	 0.360648	 0.000000
								CHANNELS 3 Zrotation Xrotation Yrotation
								JOINT RightHandIndex1
								{
									OFFSET	 0.000000	 0.069977	 0.000000
									CHANNELS 3 Zrotation Xrotation Yrotation
									JOINT RightHandIndex2
									{
										OFFSET	 0.000000	 0.052305	 0.000000
										CHANNELS 3 Zrotation Xrotation Yrotation
										JOINT RightHandIndex3
										{
											OFFSET	 0.009002	 0.042196	 0.000782
											CHANNELS 3 Zrotation Xrotation Yrotation
											End Site
											{
												OFFSET	 0.009002	 0.042196	 0.000782
											}
										}
									}
								}
							}
						}
					}
				}
			}
		}
	}
}
MOTION
Frames:    10
Frame Time: 0.03333334
 0.459233	 1.147382	-0.056914	 45.361320	-44.932680	-107.380300	-1.238983	 79.894910	-143.862900	 4.849988	-42.520920	 3.979057	 7.802979	 36.374530	-31.937700	 3.160071	 50.265270	-3.364064	 65.863400	 76.337560	 76.867740	-3.703304	-36.849910	-4.878296	-40.528530	 40.117290	 50.655550	-1.684312	 33.875740	 2.888115	 8.755568	 12.546970	-27.100020	-16.182270	 15.630470	 1.633034	 2.201846	 20.173040	 23.257220	-110.487500	 14.331930	 95.506950	 41.850960	 34.847130	-26.757380	 6.977960	-0.230178	-1.125848	-13.287490	-33.537800	-11.498700	-7.054725	 1.232914	-8.209721	-6.528129	 5.093362	 1.431178	 4.963066	-4.014628	-0.346955	 7.277642	-6.007177	 1.592068	 9.163738	-7.903869	-41.739560	 73.583720	 13.118760	-75.420770	-33.519010	 13.488840	 82.725550	-6.729796	-1.119602	 19.468650	 1.980785	 21.564520	-14.970450	 5.441113	-8.313580	 1.898860	 15.235960	 24.622730	-7.542859	-8.239867	-2.131385	 0.447455
 0.641957	 1.158736	-0.121612	 35.375800	-31.585030	-103.749800	-59.879960	 82.156350	-131.268300	 21.733500	-76.018100	 26.603000	 45.230400	 30.158350	-49.621010	 2.287763	 51.123760	-8.827632	 109.172300	 74.878660	 50.104140	-3.472522	-35.099780	-5.607303	-47.778080	 35.148330	 49.304930	-1.641097	 33.233060	 2.843180	 5.237204	 12.057530	-17.682930	-17.704680	 5.335954	 1.490640	 6.691988	 19.816980	 25.882940	-109.310600	 7.127152	 92.396170	 28.076850	 51.777960	-12.814260	 7.305485	-0.236115	-1.574709	-9.242612	-19.280050	-8.443538	-5.012796	 4.518094	-7.996837	-6.720512	 6.345860	 1.671514	 4.963066	-4.014628	-0.346955	 6.638238	-5.529995	 3.397361	 7.328427	 1.806685	-39.056720	 83.378950	 11.241720	-88.272070	-48.725880	 28.920920	 64.169430	-22.931380	-2.391756	 13.944300	-21.497350	 41.878730	 7.160522	-3.905203	 15.049010	-1.376153	 14.304850	 21.295720	-6.308887	-8.239867	-2.131385	 0.447455
 0.744802	 1.162124	-0.189533	 23.365650	-18.885220	-89.632650	-161.873700	 49.251670	-51.463500	 61.733070	-84.023850	 68.596950	 56.326180	 34.534910	-63.875810	 0.342608	 44.407620	-4.701020	 126.537400	 57.366870	 50.399380	-3.709023	-36.891580	-5.913935	-52.369650	 35.930900	 51.410410	-1.644858	 33.294320	 2.846917	 3.930506	 11.142990	-8.515699	-17.155430	-3.956405	-0.868340	 15.281960	 21.851330	 21.663110	-103.918500	 4.508651	 91.258920	 20.365130	 66.206400	-6.620785	 7.576981	-0.223324	-1.393830	-13.791890	 0.492874	 3.084688	-3.017592	 2.092023	-8.298456	-6.901863	 7.524639	 1.902077	 4.963066	-4.014628	-0.346955	 11.104040	 2.047085	 2.576575	 1.548134	 5.801274	-38.930350	 88.033400	 7.157284	-91.274090	-61.380600	 45.530800	 75.758790	-56.724680	-4.683610	 10.156920	-1.508392	 43.029810	-10.200270	-3.212341	 16.285530	-2.043335	 14.268550	 21.654910	-6.394718	-8.239867	-2.131385	 0.447455
 0.816137	 1.188875	-0.243516	 16.609720	-9.228670	-69.617180	-167.736600	 15.205170	-41.864510	 8.808594	-58.948360	 14.931990	 43.195160	 48.838790	-69.382030	 1.486087	 40.099540	-5.936227	 135.731000	 36.629530	 61.649190	-2.236920	-24.365190	-4.847857	-51.841160	 32.752130	 47.141050	-1.649248	 33.362770	 2.850835	 2.305694	 8.298662	 2.255813	-12.879450	-3.849321	-0.076839	 13.993610	 15.162420	 15.361220	-101.549300	 0.496786	 91.403550	 15.687740	 66.255590	-3.681456	 7.766066	-0.208707	-1.303385	-10.380710	 7.270745	 10.366780	-2.457583	 9.979293	-7.902421	-7.017090	 8.137146	 2.023906	 4.963066	-4.014628	-0.346955	 15.457990	 2.687355	 0.052990	-2.089873	 3.966497	-41.688880	 88.858990	 1.430753	-91.855770	-66.388850	 33.410480	 87.588390	-57.535720	-4.664586	 8.729901	 3.835556	 24.825750	-13.390710	-2.913032	 16.688670	-2.528829	 14.307800	 22.337000	-6.592614	-8.239867	-2.131385	 0.447455
 0.895859	 1.178536	-0.272308	 12.752570	-4.153156	-51.035850	-170.451300	 16.764920	-29.380850	 6.221602	-49.610750	 10.604930	 66.354890	 51.727130	-95.882900	 1.745518	 29.087870	-7.457085	 140.619800	 25.186250	 73.151920	-0.939902	-10.776440	-3.567190	-49.757270	 27.658320	 39.553010	-1.722056	 33.090140	 3.022925	 0.141202	 6.337290	 12.280080	-2.971891	 3.189326	 1.345179	 4.072802	 6.349905	 6.793677	-101.585600	-2.806026	 95.026980	 30.352150	 55.887980	-20.815650	 8.048775	-0.201335	-1.308105	 2.045655	 4.445425	 19.381640	-3.597402	 14.688420	-7.294551	-7.083084	 8.350463	 2.064719	 4.963066	-4.014628	-0.346955	 16.708370	-5.018347	-3.572261	-0.808524	-2.494204	-45.152400	 87.647560	-4.798612	-90.933540	-51.767810	 21.735950	 92.188550	-53.553940	-4.404948	 8.011703	 7.842587	-0.421708	-8.430547	-2.910057	 16.499740	-2.855857	 14.358490	 23.028080	-6.797306	-8.239867	-2.131385	 0.447455
 0.979560	 1.197153	-0.276532	 9.339004	-2.714617	-41.857730	-174.180300	 18.993690	-22.181920	 5.545993	-46.348570	 8.772143	 73.112790	 49.319210	-95.382730	 1.397984	 23.660680	-7.474005	 146.872500	 26.797550	 59.014360	-1.755088	-19.563820	-3.206613	-47.696580	 33.198010	 43.549550	-1.891220	 31.990160	 3.550944	-1.068757	 5.479524	 20.482280	-2.592563	 3.686270	 1.432685	 3.172539	 5.167348	-0.861126	-105.212100	-10.115340	 98.877040	 40.168470	 45.659840	-30.076580	 8.273797	-0.193572	-1.373152	 8.243340	 2.062917	 21.988360	-5.276237	 15.152710	-6.665595	-7.152685	 8.587482	 2.108548	 4.963066	-4.014628	-0.346955	 14.920940	-8.039006	-8.071299	 1.826692	-2.750915	-46.442620	 88.231320	-3.476097	-91.117990	-34.861050	 9.942274	 82.683160	-38.692860	-3.379591	 7.678349	 18.877580	-20.019150	 8.310911	-2.907219	 16.317130	-3.171881	 14.380640	 23.571580	-6.952697	-8.239867	-2.131385	 0.447455
 1.047203	 1.229018	-0.262838	 5.392288	-3.259408	-39.315610	-176.475200	 14.261610	-19.543280	 4.242352	-38.741760	 5.867941	 68.927430	 48.581030	-86.222200	 1.398019	 23.660650	-7.474024	 160.464300	 23.072870	 38.013540	-0.922446	-10.581280	-2.203623	-41.210560	 32.130880	 39.166180	-1.703651	 30.207470	 3.655166	-1.863656	 4.935811	 26.363260	-4.184862	 1.143070	 1.539144	 3.704138	 4.915054	-6.235455	-108.640400	-18.401970	 101.200800	 45.058130	 40.665340	-34.663330	 8.473486	-0.191748	-1.515752	 8.748585	-1.710696	 21.424200	-6.615183	 15.572650	-6.139442	-7.220016	 8.827737	 2.154048	 4.963066	-4.014628	-0.346955	 11.963770	-8.533800	-11.420350	 2.059073	 0.257269	-46.139900	 90.422000	 0.525759	-91.889980	-27.073960	 5.729414	 70.732370	-32.590640	-2.874054	 7.319765	 31.682750	-26.775020	 24.721010	-2.904532	 16.147910	-3.464714	 14.399920	 24.063750	-7.093328	-8.239867	-2.131385	 0.447455
 1.087082	 1.249648	-0.248928	 1.723214	-4.054273	-38.829730	-176.871600	 7.946929	-18.603240	 3.166176	-30.923530	 2.982758	 63.943980	 48.425520	-78.037910	 1.398039	 23.660630	-7.474036	 164.928300	 18.131450	 26.601940	-0.432261	-5.003031	-0.797714	-33.984420	 30.717920	 35.270740	-1.346474	 28.372560	 3.471730	-2.486567	 4.110546	 30.203880	-2.768024	 0.837709	 1.338200	 1.662486	 2.999114	-10.122610	-110.695900	-25.293070	 102.866100	 48.293260	 38.587180	-38.754840	 8.649815	-0.193125	-1.693707	 8.566102	-5.260851	 19.803660	-7.543718	 15.569090	-5.789845	-7.282522	 9.044463	 2.196208	 4.963066	-4.014628	-0.346955	 8.758824	-9.487368	-13.690180	 1.085178	 2.852256	-45.239090	 92.783520	 3.773022	-92.736160	-24.632650	 2.936051	 61.187890	-27.730050	-2.491464	 7.727854	 37.891850	-29.620210	 37.678440	-2.902244	 15.985360	-3.745881	 14.419750	 24.536400	-7.229025	-8.239867	-2.131385	 0.447455
 1.101630	 1.256507	-0.237337	 1.370736	-4.278460	-40.750430	-177.656600	 6.059574	-20.792330	 2.760824	-27.583860	 1.380315	 62.598580	 48.899230	-75.407750	 1.398039	 23.660620	-7.474038	 164.713500	 18.236050	 22.769160	-0.426302	-4.934039	 0.233857	-32.253550	 31.486730	 34.344790	-1.237602	 27.611490	 3.403190	-2.813698	 3.384960	 32.429760	-0.984448	 1.419429	 1.690057	-0.688330	 1.457227	-11.962820	-111.551100	-28.749480	 102.718000	 49.424740	 38.775180	-38.659210	 8.807974	-0.197695	-1.899123	 6.259262	 0.029831	 20.906730	-7.533369	 15.913510	-5.722774	-7.321345	 9.111146	 2.211404	 4.963066	-4.014628	-0.346955	 6.490975	-10.259010	-13.897500	 0.640950	 3.028663	-44.717410	 92.885540	 6.492742	-93.448910	-23.553620	 4.779865	 57.730370	-29.130510	-2.569270	 7.237239	 39.389870	-30.777600	 42.838010	-2.899881	 15.832820	-4.009746	 14.439520	 24.979800	-7.356879	-8.239867	-2.131385	 0.447455
 1.104408	 1.258688	-0.231950	 1.136880	-4.391736	-42.003400	-177.890800	 5.017544	-22.126860	 2.576920	-25.710290	 0.432670	 61.525110	 49.301450	-73.723820	 1.398031	 23.660610	-7.474034	 164.600500	 18.216930	 20.669920	-0.423693	-4.904258	 1.032660	-31.313650	 32.097430	 33.652580	-1.184619	 27.238810	 3.370012	-2.942601	 2.966561	 33.170560	 0.212968	 2.050596	 1.850516	-2.127666	 0.434356	-13.391010	-111.945100	-30.271700	 102.605100	 50.717950	 38.946090	-38.929990	 8.936034	-0.205336	-2.132271	 3.691208	 3.972117	 22.738560	-7.480222	 16.373300	-5.670842	-7.345209	 9.084617	 2.209162	 4.963066	-4.014628	-0.346955	 5.475379	-10.434580	-13.595730	 0.022173	 2.458021	-44.865510	 92.928700	 8.007796	-93.873400	-23.126990	 5.762863	 55.839420	-30.366210	-2.613332	 6.514736	 41.295190	-32.398830	 45.801120	-2.897745	 15.688890	-4.258673	 14.459230	 25.398080	-7.478030	-8.239867	-2.131385	 0.447455
